<mxfile host="65bd71144e">
    <diagram id="SqcqFoMkQEMSvt5jpukD" name="Page-1">
        <mxGraphModel dx="1832" dy="1665" grid="1" gridSize="10" guides="1" tooltips="1" connect="1" arrows="1" fold="1" page="1" pageScale="1" pageWidth="827" pageHeight="1169" math="0" shadow="0">
            <root>
                <mxCell id="0"/>
                <mxCell id="1" parent="0"/>
                <mxCell id="2" value="&lt;span style=&quot;background-color: transparent;&quot;&gt;USER_PREFERENCE&lt;/span&gt;&lt;div&gt;&lt;span style=&quot;background-color: transparent;&quot;&gt;PK: preference_id&amp;nbsp;&lt;/span&gt;&lt;span style=&quot;color: rgb(63, 63, 63); background-color: transparent;&quot;&gt;(Integer)&lt;/span&gt;&lt;/div&gt;&lt;div&gt;&lt;span style=&quot;background-color: transparent;&quot;&gt;FK: user_id&amp;nbsp;&lt;/span&gt;&lt;span style=&quot;color: rgb(63, 63, 63); background-color: transparent;&quot;&gt;(Integer)&lt;/span&gt;&lt;/div&gt;&lt;div&gt;&lt;span style=&quot;background-color: transparent;&quot;&gt;species (Vachar)&lt;/span&gt;&lt;/div&gt;&lt;div&gt;&lt;span style=&quot;background-color: transparent;&quot;&gt;age_range&amp;nbsp;&lt;/span&gt;&lt;span style=&quot;color: rgb(63, 63, 63); background-color: transparent;&quot;&gt;(Vachar)&lt;/span&gt;&lt;/div&gt;&lt;div&gt;&lt;span style=&quot;background-color: transparent;&quot;&gt;size_preferece&amp;nbsp;&lt;/span&gt;&lt;span style=&quot;color: rgb(63, 63, 63); background-color: transparent;&quot;&gt;(Vachar)&lt;/span&gt;&lt;/div&gt;" style="whiteSpace=wrap;html=1;" vertex="1" parent="1">
                    <mxGeometry x="550" y="-390" width="210" height="110" as="geometry"/>
                </mxCell>
                <mxCell id="5" value="&lt;div&gt;PET_PROFILE&lt;/div&gt;&lt;div&gt;PK: profile_id&amp;nbsp;&lt;span style=&quot;color: rgb(63, 63, 63); background-color: transparent;&quot;&gt;(Integer)&lt;/span&gt;&lt;/div&gt;&lt;div&gt;FK: pet_id&amp;nbsp;&lt;span style=&quot;color: rgb(63, 63, 63); background-color: transparent;&quot;&gt;(Integer)&lt;/span&gt;&lt;/div&gt;&lt;div&gt;description (text)&lt;/div&gt;&lt;div&gt;medical_history (text)&lt;/div&gt;&lt;div&gt;training_status (Varchar)&lt;/div&gt;" style="whiteSpace=wrap;html=1;" vertex="1" parent="1">
                    <mxGeometry x="-60" y="-400" width="240" height="110" as="geometry"/>
                </mxCell>
                <mxCell id="6" value="&lt;span style=&quot;background-color: transparent;&quot;&gt;APPOINTMENT&lt;/span&gt;&lt;div&gt;PK: appointment_id&amp;nbsp;&lt;span style=&quot;background-color: transparent;&quot;&gt;(Integer)&lt;/span&gt;&lt;/div&gt;&lt;div&gt;FK: user_id&amp;nbsp;&lt;span style=&quot;background-color: transparent;&quot;&gt;(Integer)&lt;/span&gt;&lt;/div&gt;&lt;div&gt;FK: pet_id&amp;nbsp;&lt;span style=&quot;background-color: transparent;&quot;&gt;(Integer)&lt;/span&gt;&lt;/div&gt;&lt;div&gt;date (date)&lt;/div&gt;&lt;div&gt;status (enum)&lt;/div&gt;&lt;div&gt;note (text)&lt;/div&gt;" style="whiteSpace=wrap;html=1;" vertex="1" parent="1">
                    <mxGeometry x="250" y="-400" width="220" height="140" as="geometry"/>
                </mxCell>
                <mxCell id="7" value="FAVORITES&lt;div&gt;PK: favorite_id&amp;nbsp;&lt;span style=&quot;color: rgb(63, 63, 63); background-color: transparent;&quot;&gt;(Integer)&lt;/span&gt;&lt;/div&gt;&lt;div&gt;FK: user_id&amp;nbsp;&lt;span style=&quot;color: rgb(63, 63, 63); background-color: transparent;&quot;&gt;(Integer)&lt;/span&gt;&lt;/div&gt;&lt;div&gt;FK: pet_id&amp;nbsp;&lt;span style=&quot;color: rgb(63, 63, 63); background-color: transparent;&quot;&gt;(Integer)&lt;/span&gt;&lt;/div&gt;" style="whiteSpace=wrap;html=1;" vertex="1" parent="1">
                    <mxGeometry x="270" y="-185" width="170" height="60" as="geometry"/>
                </mxCell>
                <mxCell id="8" value="&lt;div&gt;APPLICATION&lt;/div&gt;&lt;div&gt;&lt;span style=&quot;color: rgb(63, 63, 63); text-align: left;&quot;&gt;PK: application_id (Integer)&lt;/span&gt;&lt;br&gt;&lt;/div&gt;&lt;div&gt;&lt;span style=&quot;color: rgb(63, 63, 63); text-align: left;&quot;&gt;FK: user_id&amp;nbsp;&lt;/span&gt;&lt;span style=&quot;color: rgb(63, 63, 63); text-align: left; background-color: transparent;&quot;&gt;(Integer)&lt;/span&gt;&lt;/div&gt;&lt;div&gt;&lt;span style=&quot;color: rgb(63, 63, 63); text-align: left;&quot;&gt;FK: pet_id&amp;nbsp;&lt;/span&gt;&lt;span style=&quot;color: rgb(63, 63, 63); text-align: left; background-color: transparent;&quot;&gt;(Integer)&lt;/span&gt;&lt;/div&gt;&lt;div&gt;&lt;span style=&quot;color: rgb(63, 63, 63); text-align: left;&quot;&gt;status (enum)&lt;/span&gt;&lt;/div&gt;&lt;div&gt;&lt;span style=&quot;color: rgb(63, 63, 63); text-align: left;&quot;&gt;application_date (date)&lt;/span&gt;&lt;/div&gt;&lt;div&gt;&lt;span style=&quot;color: rgb(63, 63, 63); text-align: left;&quot;&gt;living_situation (text)&lt;/span&gt;&lt;/div&gt;&lt;div&gt;&lt;span style=&quot;color: rgb(63, 63, 63); text-align: left;&quot;&gt;pet_experience (text)&lt;/span&gt;&lt;/div&gt;" style="whiteSpace=wrap;html=1;" vertex="1" parent="1">
                    <mxGeometry x="450" y="-30" width="270" height="140" as="geometry"/>
                </mxCell>
                <mxCell id="19" style="edgeStyle=none;html=1;entryX=0.5;entryY=0;entryDx=0;entryDy=0;" edge="1" parent="1" source="9" target="10">
                    <mxGeometry relative="1" as="geometry">
                        <mxPoint x="104" y="-30" as="targetPoint"/>
                    </mxGeometry>
                </mxCell>
                <mxCell id="20" value="N to 1" style="edgeLabel;html=1;align=center;verticalAlign=middle;resizable=0;points=[];" vertex="1" connectable="0" parent="19">
                    <mxGeometry x="-0.2849" y="4" relative="1" as="geometry">
                        <mxPoint x="-4" y="8" as="offset"/>
                    </mxGeometry>
                </mxCell>
                <mxCell id="23" value="1 to N" style="edgeStyle=none;html=1;exitX=1;exitY=0.5;exitDx=0;exitDy=0;entryX=0;entryY=0.5;entryDx=0;entryDy=0;" edge="1" parent="1" source="9" target="7">
                    <mxGeometry relative="1" as="geometry"/>
                </mxCell>
                <mxCell id="26" style="edgeStyle=none;html=1;exitX=1;exitY=1;exitDx=0;exitDy=0;entryX=0;entryY=0;entryDx=0;entryDy=0;" edge="1" parent="1" source="9" target="8">
                    <mxGeometry relative="1" as="geometry"/>
                </mxCell>
                <mxCell id="27" value="1 to N" style="edgeLabel;html=1;align=center;verticalAlign=middle;resizable=0;points=[];" vertex="1" connectable="0" parent="26">
                    <mxGeometry x="-0.2658" y="3" relative="1" as="geometry">
                        <mxPoint x="15" y="10" as="offset"/>
                    </mxGeometry>
                </mxCell>
                <mxCell id="30" style="edgeStyle=none;html=1;exitX=0.5;exitY=0;exitDx=0;exitDy=0;entryX=0;entryY=0.5;entryDx=0;entryDy=0;" edge="1" parent="1" source="9" target="6">
                    <mxGeometry relative="1" as="geometry"/>
                </mxCell>
                <mxCell id="31" value="1 to N" style="edgeLabel;html=1;align=center;verticalAlign=middle;resizable=0;points=[];" vertex="1" connectable="0" parent="30">
                    <mxGeometry x="-0.4" y="-3" relative="1" as="geometry">
                        <mxPoint x="21" y="-19" as="offset"/>
                    </mxGeometry>
                </mxCell>
                <mxCell id="32" style="edgeStyle=none;html=1;exitX=0.25;exitY=0;exitDx=0;exitDy=0;entryX=0.5;entryY=1;entryDx=0;entryDy=0;" edge="1" parent="1" source="9" target="5">
                    <mxGeometry relative="1" as="geometry">
                        <mxPoint x="62.66666666666674" y="-280" as="targetPoint"/>
                    </mxGeometry>
                </mxCell>
                <mxCell id="33" value="1 to 1" style="edgeLabel;html=1;align=center;verticalAlign=middle;resizable=0;points=[];" vertex="1" connectable="0" parent="32">
                    <mxGeometry x="-0.2223" y="-3" relative="1" as="geometry">
                        <mxPoint y="-1" as="offset"/>
                    </mxGeometry>
                </mxCell>
                <mxCell id="9" value="PET&lt;div&gt;PK: pet_id (Integer)&lt;/div&gt;&lt;div&gt;name (Varchar)&lt;/div&gt;&lt;div&gt;species&amp;nbsp;&lt;span style=&quot;color: rgb(63, 63, 63); background-color: transparent;&quot;&gt;(Varchar)&lt;/span&gt;&lt;/div&gt;&lt;div&gt;breed&amp;nbsp;&lt;span style=&quot;color: rgb(63, 63, 63); background-color: transparent;&quot;&gt;(Varchar)&lt;/span&gt;&lt;/div&gt;&lt;div&gt;age&amp;nbsp;&lt;span style=&quot;color: rgb(63, 63, 63); background-color: transparent;&quot;&gt;(Integer)&lt;/span&gt;&lt;/div&gt;&lt;div&gt;size&amp;nbsp;&lt;span style=&quot;color: rgb(63, 63, 63); background-color: transparent;&quot;&gt;(Varchar)&lt;/span&gt;&lt;/div&gt;&lt;div&gt;FK: shelter_id (Integer)&lt;/div&gt;" style="whiteSpace=wrap;html=1;" vertex="1" parent="1">
                    <mxGeometry x="20" y="-220" width="168" height="130" as="geometry"/>
                </mxCell>
                <mxCell id="10" value="&lt;div&gt;SHELTER&lt;/div&gt;&lt;div&gt;PK: shelter_id (Integer)&lt;/div&gt;&lt;div&gt;name&amp;nbsp;&lt;span style=&quot;color: rgb(63, 63, 63); background-color: transparent;&quot;&gt;(Varchar)&lt;/span&gt;&lt;/div&gt;&lt;div&gt;address&amp;nbsp;&lt;span style=&quot;color: rgb(63, 63, 63); background-color: transparent;&quot;&gt;(Varchar)&lt;/span&gt;&lt;/div&gt;&lt;div&gt;phone&amp;nbsp;&lt;span style=&quot;color: rgb(63, 63, 63); background-color: transparent;&quot;&gt;(Varchar)&lt;/span&gt;&lt;/div&gt;" style="whiteSpace=wrap;html=1;" vertex="1" parent="1">
                    <mxGeometry x="-6" width="220" height="90" as="geometry"/>
                </mxCell>
                <mxCell id="21" style="edgeStyle=none;html=1;entryX=1;entryY=0.5;entryDx=0;entryDy=0;" edge="1" parent="1" source="11" target="7">
                    <mxGeometry relative="1" as="geometry"/>
                </mxCell>
                <mxCell id="22" value="1 to N" style="edgeLabel;html=1;align=center;verticalAlign=middle;resizable=0;points=[];" vertex="1" connectable="0" parent="21">
                    <mxGeometry x="0.0704" y="1" relative="1" as="geometry">
                        <mxPoint as="offset"/>
                    </mxGeometry>
                </mxCell>
                <mxCell id="24" style="edgeStyle=none;html=1;entryX=0.5;entryY=0;entryDx=0;entryDy=0;" edge="1" parent="1" source="11" target="8">
                    <mxGeometry relative="1" as="geometry"/>
                </mxCell>
                <mxCell id="25" value="1 to N" style="edgeLabel;html=1;align=center;verticalAlign=middle;resizable=0;points=[];" vertex="1" connectable="0" parent="24">
                    <mxGeometry x="-0.1775" y="1" relative="1" as="geometry">
                        <mxPoint as="offset"/>
                    </mxGeometry>
                </mxCell>
                <mxCell id="28" style="edgeStyle=none;html=1;exitX=0.5;exitY=0;exitDx=0;exitDy=0;entryX=1;entryY=0.5;entryDx=0;entryDy=0;" edge="1" parent="1" source="11" target="6">
                    <mxGeometry relative="1" as="geometry"/>
                </mxCell>
                <mxCell id="29" value="1 to N" style="edgeLabel;html=1;align=center;verticalAlign=middle;resizable=0;points=[];" vertex="1" connectable="0" parent="28">
                    <mxGeometry x="-0.2306" y="-4" relative="1" as="geometry">
                        <mxPoint y="-4" as="offset"/>
                    </mxGeometry>
                </mxCell>
                <mxCell id="35" style="edgeStyle=none;html=1;exitX=0.75;exitY=0;exitDx=0;exitDy=0;entryX=0.5;entryY=1;entryDx=0;entryDy=0;" edge="1" parent="1" source="11" target="2">
                    <mxGeometry relative="1" as="geometry"/>
                </mxCell>
                <mxCell id="36" value="1 to 1" style="edgeLabel;html=1;align=center;verticalAlign=middle;resizable=0;points=[];" vertex="1" connectable="0" parent="35">
                    <mxGeometry x="0.0589" y="3" relative="1" as="geometry">
                        <mxPoint as="offset"/>
                    </mxGeometry>
                </mxCell>
                <mxCell id="11" value="USER&lt;div&gt;PK: user_id&amp;nbsp;&lt;span style=&quot;color: rgb(63, 63, 63); background-color: transparent;&quot;&gt;(Integer)&lt;/span&gt;&lt;/div&gt;&lt;div&gt;email&amp;nbsp;&lt;span style=&quot;color: rgb(63, 63, 63); background-color: transparent;&quot;&gt;(Varchar)&lt;/span&gt;&lt;/div&gt;&lt;div&gt;name&amp;nbsp;&lt;span style=&quot;color: rgb(63, 63, 63); background-color: transparent;&quot;&gt;(Varchar)&lt;/span&gt;&lt;/div&gt;&lt;div&gt;phone&amp;nbsp;&lt;span style=&quot;color: rgb(63, 63, 63); background-color: transparent;&quot;&gt;(Varchar)&lt;/span&gt;&lt;/div&gt;&lt;div&gt;usertype&amp;nbsp;&lt;span style=&quot;color: rgb(63, 63, 63); background-color: transparent;&quot;&gt;(enum)&lt;/span&gt;&lt;/div&gt;&lt;div&gt;&lt;br&gt;&lt;/div&gt;" style="whiteSpace=wrap;html=1;" vertex="1" parent="1">
                    <mxGeometry x="515" y="-210" width="140" height="110" as="geometry"/>
                </mxCell>
            </root>
        </mxGraphModel>
    </diagram>
</mxfile>
